<svg width="129" height="32" viewBox="0 0 129 32" fill="none" xmlns="http://www.w3.org/2000/svg">
<path d="M0.912936 24.6439C0.220988 23.7829 0.358012 22.524 1.21899 21.832L26.8252 1.2529C27.6862 0.560954 28.945 0.697978 29.637 1.55895C30.3289 2.41993 30.1919 3.67883 29.3309 4.37077L3.72476 24.9499C2.86378 25.6419 1.60488 25.5048 0.912936 24.6439Z" fill="url(#paint0_linear_26_38)"/>
<path d="M19.76 31.54C17.072 31.54 14.696 31.012 12.632 29.956C10.568 28.876 8.97202 27.352 7.84402 25.384C6.71602 23.416 6.15202 21.1 6.15202 18.436C6.15202 15.772 6.71602 13.456 7.84402 11.488C8.97202 9.49602 10.568 7.97202 12.632 6.91602C14.696 5.83602 17.072 5.29602 19.76 5.29602C21.584 5.29602 23.192 5.48802 24.584 5.87202C26 6.23202 27.296 6.80802 28.472 7.60002V12.82C27.416 11.956 26.204 11.332 24.836 10.948C23.492 10.54 21.956 10.336 20.228 10.336C18.62 10.336 17.168 10.672 15.872 11.344C14.6 11.992 13.592 12.928 12.848 14.152C12.104 15.376 11.732 16.804 11.732 18.436C11.732 20.092 12.068 21.544 12.74 22.792C13.436 24.016 14.408 24.964 15.656 25.636C16.904 26.308 18.344 26.644 19.976 26.644C21.464 26.644 22.76 26.38 23.864 25.852V20.992H19.796V16.96H29.156V29.092C26.78 30.724 23.648 31.54 19.76 31.54Z" fill="#2A2A2A"/>
<path d="M38.6637 31.54C36.5517 31.54 34.8237 31.012 33.4797 29.956C32.1597 28.876 31.4997 27.412 31.4997 25.564C31.4997 23.644 32.1357 22.156 33.4077 21.1C34.6797 20.02 36.4797 19.48 38.8077 19.48C39.8397 19.48 40.8237 19.588 41.7597 19.804C42.6957 20.02 43.5237 20.32 44.2437 20.704V20.272C44.2437 19.192 43.8597 18.4 43.0917 17.896C42.3237 17.392 41.1477 17.14 39.5637 17.14C37.4517 17.14 35.5077 17.536 33.7317 18.328V14.368C34.4997 14.032 35.4957 13.756 36.7197 13.54C37.9437 13.3 39.1677 13.18 40.3917 13.18C43.5117 13.18 45.8397 13.828 47.3757 15.124C48.9117 16.396 49.6797 18.184 49.6797 20.488V31H44.5677V29.416C43.1037 30.832 41.1357 31.54 38.6637 31.54ZM40.1397 27.94C41.0277 27.94 41.8317 27.772 42.5517 27.436C43.2717 27.1 43.8357 26.632 44.2437 26.032V24.304C43.0197 23.488 41.6757 23.08 40.2117 23.08C39.2037 23.08 38.4237 23.296 37.8717 23.728C37.3437 24.136 37.0797 24.748 37.0797 25.564C37.0797 26.332 37.3437 26.92 37.8717 27.328C38.3997 27.736 39.1557 27.94 40.1397 27.94Z" fill="#2A2A2A"/>
<path d="M65.0143 31.54C63.6703 31.54 62.4703 31.348 61.4143 30.964C60.3823 30.58 59.4223 29.968 58.5343 29.128V31H53.2783V4.39602H58.7143V15.268C59.4823 14.596 60.4183 14.08 61.5223 13.72C62.6263 13.36 63.7903 13.18 65.0143 13.18C66.8143 13.18 68.3983 13.576 69.7663 14.368C71.1583 15.136 72.2383 16.216 73.0063 17.608C73.7743 19 74.1583 20.596 74.1583 22.396C74.1583 24.22 73.7743 25.828 73.0063 27.22C72.2383 28.588 71.1583 29.656 69.7663 30.424C68.3983 31.168 66.8143 31.54 65.0143 31.54ZM63.6463 27.328C65.1103 27.328 66.2983 26.884 67.2103 25.996C68.1463 25.084 68.6143 23.884 68.6143 22.396C68.6143 20.908 68.1463 19.708 67.2103 18.796C66.2983 17.884 65.1103 17.428 63.6463 17.428C62.5183 17.428 61.4983 17.74 60.5863 18.364C59.6983 18.964 59.0743 19.756 58.7143 20.74V24.016C59.0983 25.024 59.7343 25.828 60.6223 26.428C61.5103 27.028 62.5183 27.328 63.6463 27.328Z" fill="#2A2A2A"/>
<path d="M77.2197 13.72H82.4757V16.204C83.1717 15.364 84.1437 14.728 85.3917 14.296C86.6397 13.84 88.0557 13.612 89.6397 13.612V17.752C87.9837 17.752 86.5197 18.004 85.2477 18.508C83.9997 19.012 83.1357 19.78 82.6557 20.812V31H77.2197V13.72Z" fill="#2A2A2A"/>
<path d="M94.9381 11.056C94.0981 11.056 93.3901 10.78 92.8141 10.228C92.2381 9.67602 91.9501 8.98002 91.9501 8.14002C91.9501 7.32402 92.2381 6.64002 92.8141 6.08802C93.3901 5.51202 94.0981 5.22402 94.9381 5.22402C95.7781 5.22402 96.4861 5.51202 97.0621 6.08802C97.6381 6.64002 97.9261 7.32402 97.9261 8.14002C97.9261 8.98002 97.6381 9.67602 97.0621 10.228C96.4861 10.78 95.7781 11.056 94.9381 11.056ZM92.2021 13.72H97.6741V31H92.2021V13.72Z" fill="#2A2A2A"/>
<path d="M111.589 31.54C108.277 31.54 105.673 30.748 103.777 29.164C101.881 27.556 100.933 25.312 100.933 22.432C100.933 19.576 101.773 17.32 103.453 15.664C105.157 14.008 107.581 13.18 110.725 13.18C112.789 13.18 114.541 13.564 115.981 14.332C117.421 15.1 118.513 16.168 119.257 17.536C120.001 18.88 120.373 20.404 120.373 22.108V24.304H106.117C106.501 26.512 108.565 27.616 112.309 27.616C113.413 27.616 114.553 27.52 115.729 27.328C116.905 27.136 117.925 26.872 118.789 26.536V30.352C117.949 30.712 116.869 31 115.549 31.216C114.229 31.432 112.909 31.54 111.589 31.54ZM115.225 20.776C115.153 19.624 114.721 18.736 113.929 18.112C113.137 17.464 112.045 17.14 110.653 17.14C109.285 17.14 108.205 17.464 107.413 18.112C106.621 18.76 106.189 19.648 106.117 20.776H115.225Z" fill="#2A2A2A"/>
<path d="M123.38 4.39602H128.816V31H123.38V4.39602Z" fill="#2A2A2A"/>
<defs>
<linearGradient id="paint0_linear_26_38" x1="64.6438" y1="0.811768" x2="64.6438" y2="31.54" gradientUnits="userSpaceOnUse">
<stop stop-color="#FBCF73"/>
<stop offset="1" stop-color="#FFAD01"/>
</linearGradient>
</defs>
</svg>
